<svg width="127" height="120" viewBox="0 0 127 120" fill="none" xmlns="http://www.w3.org/2000/svg">
<g clip-path="url(#clip0)">
<path d="M50.0596 35.8696L39.3516 46.5776L47.0797 54.3058L50.6686 50.7166L52.6567 52.7047L49.0679 56.2936L51.0439 58.27L61.752 47.562L50.0596 35.8696ZM50.8304 47.3478C50.5236 47.6547 50.1156 47.8239 49.682 47.8239C49.2484 47.8239 48.8408 47.655 48.5339 47.3485C47.9008 46.715 47.9008 45.6848 48.5339 45.052C48.8408 44.7451 49.2484 44.5763 49.682 44.5763C50.1156 44.5763 50.5236 44.7451 50.8301 45.0516C51.4633 45.6848 51.4633 46.7146 50.8304 47.3478Z" fill="#4DD141"/>
<path d="M64.9297 72.1553L66.9241 74.1497L70.5221 70.5516L72.5103 72.5398L68.9122 76.1378L70.8879 78.1135L74.486 74.5155L76.4741 76.5037L72.8761 80.1017L76.6327 83.8583L87.3407 73.1503L75.6381 61.4473L64.9297 72.1553Z" fill="#4DD141"/>
<path d="M87.3463 35.8584L72.2778 41.7031L81.502 50.9269L87.3463 35.8584Z" fill="#4DD141"/>
<path d="M42.9167 70.3721L40.6404 72.6481C39.8193 73.4695 39.3667 74.5615 39.3667 75.7231C39.3667 76.8848 39.8193 77.9764 40.6404 78.7982L44.4061 82.564C45.2275 83.3854 46.3196 83.8376 47.4812 83.8376C48.6428 83.8376 49.7349 83.3854 50.5563 82.564L52.8323 80.288L42.9167 70.3721Z" fill="#4DD141"/>
<path d="M73.908 47.309L69.9441 43.3447L44.9048 68.384L48.869 72.3479L73.908 47.309Z" fill="#4DD141"/>
<path d="M75.0415 58.0793L79.8601 53.2607L75.8962 49.2969L50.8569 74.3362L54.8208 78.3L75.0415 58.0793Z" fill="#4DD141"/>
</g>
<path d="M8.22875 30.3966C12.1005 13.4556 27.1857 1.37647 44.5592 1.37647H82.341C99.1484 1.37647 113.795 12.9402 117.767 29.276C122.663 49.4127 122.667 70.5035 117.746 90.6329C113.777 106.869 99.2267 118.29 82.5126 118.29H44.3822C27.1049 118.29 12.1178 106.357 8.24833 89.5182C3.78347 70.089 3.78687 49.8322 8.22875 30.3966Z" stroke="#DEDEDE" stroke-width="1.93165"/>
<defs>
<clipPath id="clip0">
<rect width="48" height="48" fill="white" transform="translate(39.3516 35.8584)"/>
</clipPath>
</defs>
</svg>
