<svg width="127" height="120" viewBox="0 0 127 120" fill="none" xmlns="http://www.w3.org/2000/svg">
<g clip-path="url(#clip0)">
<path d="M84.9607 73.4314C84.1709 72.6416 83.1195 72.2744 82.0832 72.3347L79.3064 69.5579C80.4332 68.1192 81.3638 66.5396 82.0832 64.8392C83.1699 62.2637 83.7232 59.532 83.7232 56.72C83.7232 53.9079 83.1699 51.1713 82.0832 48.6007C81.0319 46.1156 79.5277 43.8871 77.6111 41.9705C75.6945 40.0539 73.466 38.5497 70.9808 37.4983C68.4053 36.4118 65.6736 35.8584 62.8616 35.8584C60.0496 35.8584 57.313 36.4118 54.7424 37.4983C52.2573 38.5447 50.0288 40.0488 48.1121 41.9655C46.1955 43.8821 44.6914 46.1106 43.64 48.5957C42.5534 51.1714 42 53.9029 42 56.715C42 59.527 42.5534 62.2637 43.64 64.8343C44.6913 67.3193 46.1955 69.5478 48.1121 71.4645C50.0287 73.3812 52.2572 74.8853 54.7423 75.9366C57.3179 77.0233 60.0495 77.5766 62.8616 77.5766C65.6736 77.5766 68.4103 77.0233 70.9808 75.9366C72.7012 75.2072 74.3009 74.2665 75.7548 73.1145L78.5266 75.8863C78.4712 76.9227 78.8335 77.9739 79.6233 78.7638L83.5622 82.7026C84.2966 83.4372 85.2625 83.8094 86.2284 83.8094C87.1942 83.8094 88.16 83.4422 88.8945 82.7026C90.3685 81.2287 90.3685 78.8392 88.8945 77.3652L84.9607 73.4314ZM75.7146 65.9611C75.2165 66.6453 74.6632 67.2992 74.0545 67.9079C73.4609 68.5015 72.8271 69.0397 72.163 69.5227C69.4767 71.4846 66.2471 72.541 62.8565 72.541C58.6258 72.541 54.6517 70.896 51.6636 67.9029C48.6755 64.9148 47.0254 60.9356 47.0254 56.71C47.0254 52.4843 48.6704 48.5052 51.6636 45.5171C54.6517 42.5289 58.6309 40.8789 62.8565 40.8789C67.0821 40.8789 71.0613 42.5239 74.0494 45.5171C77.0375 48.5052 78.6876 52.4843 78.6876 56.71C78.6926 60.0804 77.6513 63.2848 75.7146 65.9611Z" fill="#FF8C00"/>
<path d="M61.7894 47.5326H64.0206C64.7191 47.5326 65.2973 48.0812 65.406 48.7922H67.3579C67.2337 47.0109 65.7863 45.6006 64.0206 45.6006H61.7894C60.0237 45.6006 58.5763 47.0109 58.4521 48.7922H60.404C60.5088 48.0774 61.0909 47.5326 61.7894 47.5326Z" fill="#FF8C00"/>
<path d="M67.3651 49.7578H65.4249H60.3803H58.44H55.2774C54.6876 49.7578 54.024 50.3181 53.6632 50.6697C53.4381 50.9402 53.3954 51.1256 53.4148 51.3343C53.5584 52.7214 54.4858 54.0274 56.0574 55.0553C57.4505 55.9633 59.2006 56.5622 61.1098 56.7902C61.6919 56.8597 62.2934 56.8983 62.8987 56.8983C64.0202 56.8983 65.1145 56.7747 66.1389 56.539C67.4854 56.2299 68.7117 55.7276 69.7439 55.0553C71.3155 54.0274 72.239 52.7176 72.3865 51.3343C72.4098 51.1218 72.2934 50.8165 72.1382 50.6697C71.7773 50.3181 71.1137 49.7578 70.5239 49.7578H67.3651Z" fill="#FF8C00"/>
<path d="M70.6017 56.3502C69.6626 56.9646 68.5838 57.4553 67.412 57.803C66.0111 58.2242 64.4822 58.4445 62.9028 58.4445C62.7903 58.4445 62.6739 58.4445 62.5614 58.4406C59.7907 58.3865 57.1908 57.6485 55.2039 56.3502C54.3657 55.8015 53.6711 55.1756 53.1279 54.4839C52.9959 54.3139 52.8989 54.3448 52.8989 54.5573V59.9436C52.8989 61.3076 53.9622 62.4166 55.2738 62.4166H66.5466H70.5241C70.9548 62.4166 71.3584 62.2968 71.7037 62.0881C72.4177 61.6631 72.8989 60.8632 72.8989 59.9436V54.5612C72.8989 54.3487 72.8019 54.3178 72.67 54.4878C72.1345 55.1755 71.4399 55.8015 70.6017 56.3502Z" fill="#FF8C00"/>
</g>
<path d="M8.37718 30.3966C12.2489 13.4556 27.3341 1.37647 44.7077 1.37647H82.4894C99.2969 1.37647 113.944 12.9402 117.915 29.276C122.811 49.4127 122.816 70.5035 117.894 90.6329C113.925 106.869 99.3751 118.29 82.661 118.29H44.5306C27.2534 118.29 12.2662 106.357 8.39677 89.5182C3.9319 70.089 3.9353 49.8322 8.37718 30.3966Z" stroke="#DEDEDE" stroke-width="1.93165"/>
<defs>
<clipPath id="clip0">
<rect width="48" height="48" fill="white" transform="translate(42 35.8335)"/>
</clipPath>
</defs>
</svg>
