<svg width="127" height="120" viewBox="0 0 127 120" fill="none" xmlns="http://www.w3.org/2000/svg">
<g clip-path="url(#clip0)">
<path d="M83.7619 82.1292C83.7619 80.206 81.5484 77.61 78.5576 76.852C79.8054 76.0114 80.6666 74.3537 80.6666 72.8597C80.6666 70.7521 78.9579 69.0435 76.8545 69.0435C74.7441 69.0435 73.0382 70.7521 73.0382 72.8597C73.0382 74.3537 73.9008 76.0114 75.1472 76.852C72.1578 77.61 69.9429 80.206 69.9429 82.1292C69.9415 84.4019 83.7619 84.4019 83.7619 82.1292Z" fill="#7C6ECD"/>
<path d="M51.5675 44.4702C53.272 44.4702 54.6587 42.4864 54.6587 40.7805C54.6587 39.0691 53.272 37.6865 51.5675 37.6865C49.8589 37.6865 48.4722 39.0691 48.4722 40.7805C48.4722 42.4864 49.8589 44.4702 51.5675 44.4702Z" fill="#7C6ECD"/>
<path d="M83.9958 53.5637V40.471C83.9958 39.2673 83.0163 38.2891 81.8125 38.2891H73.3574V36.652C73.3574 36.1994 72.9901 35.8335 72.5375 35.8335C72.0849 35.8335 71.7176 36.2008 71.7176 36.652V38.2891H63.2638C62.0614 38.2891 61.0819 39.2673 61.0819 40.471V47.1749L56.8461 45.762C56.5806 45.6685 54.2061 44.8389 52.0187 44.7302L51.7257 45.3149H51.7202L52.5443 51.7299L51.5661 53.4412L50.5866 51.7299L51.4093 45.3149H51.4024L51.1108 44.7302C48.8422 44.8444 46.3673 45.7331 46.2572 45.7716C46.2118 45.7895 46.183 45.8239 46.1417 45.8432C46.0674 45.8803 46.0014 45.9175 45.9367 45.9684C45.8707 46.0151 45.8198 46.0674 45.7675 46.1252C45.7166 46.1857 45.6726 46.2435 45.634 46.3109C45.59 46.3838 45.5584 46.454 45.5322 46.5365C45.5185 46.5792 45.4896 46.6108 45.4786 46.6549L43.5223 55.4608C43.3765 56.1198 43.7906 56.7746 44.4509 56.9218C44.5404 56.9383 44.627 56.9466 44.7178 56.9466C45.2791 56.9466 45.784 56.5614 45.9078 55.9918L47.7155 47.8655C47.8421 47.8256 47.9838 47.7829 48.142 47.7389V56.0909L47.1666 68.1958C47.1294 68.6635 47.3317 69.0831 47.6536 69.3761C46.3247 69.9746 45.3947 71.3008 45.3947 72.8539C45.3947 74.348 46.2559 76.0057 47.5036 76.8463C44.5142 77.6043 42.2993 80.2002 42.2993 82.1235C42.2993 84.3962 56.1197 84.3962 56.1197 82.1235C56.1197 80.2002 53.9048 77.6043 50.9154 76.8463C52.1646 76.0057 53.0258 74.348 53.0258 72.8539C53.0258 70.9623 51.6487 69.4036 49.8424 69.0996C49.973 68.9001 50.0735 68.6814 50.0941 68.4283L50.9732 57.4872C51.1562 57.5656 51.3556 57.6124 51.5689 57.6124C51.778 57.6124 51.9775 57.5656 52.1591 57.4872L53.0395 68.4283C53.1042 69.1987 53.7452 69.7778 54.5033 69.7778C54.5404 69.7778 54.5817 69.7765 54.6202 69.7737C55.4277 69.7091 56.0317 69.0019 55.967 68.1944L54.993 56.0909V47.7403C55.6135 47.9164 56.0331 48.0663 56.0441 48.0718C56.0523 48.0746 56.0564 48.0746 56.0606 48.076C56.0675 48.0773 56.0702 48.0787 56.0743 48.0801L61.0861 49.7516V53.5637C61.0861 54.7674 62.0656 55.7456 63.2679 55.7456H67.2396L63.7549 68.7516C63.7233 68.8754 63.726 68.9964 63.7481 69.112C63.5169 69.0693 63.2789 69.0405 63.0341 69.0405C60.9265 69.0405 59.2178 70.7491 59.2178 72.8567C59.2178 74.3507 60.0804 76.0084 61.3296 76.849C58.3388 77.607 56.1239 80.203 56.1239 82.1262C56.1239 84.3989 69.9443 84.3989 69.9443 82.1262C69.9443 80.203 67.7294 77.607 64.7413 76.849C65.9891 76.0084 66.8503 74.3507 66.8503 72.8567C66.8503 71.4837 66.1225 70.2924 65.0343 69.6183C65.1774 69.5137 65.2902 69.3596 65.3384 69.1753L68.9359 55.7442H71.7244V65.2627C71.7244 65.7126 72.0931 66.0799 72.5444 66.0799C72.9956 66.0799 73.3643 65.7126 73.3643 65.2627V55.7442H76.1501L79.7476 69.1753C79.8453 69.5412 80.1768 69.7806 80.5386 69.7806C80.6088 69.7806 80.6803 69.771 80.7491 69.7517C81.1838 69.6334 81.4452 69.1849 81.3297 68.7488L77.845 55.7428H81.8167C83.0163 55.7456 83.9958 54.7674 83.9958 53.5637ZM63.2652 54.6546C62.6626 54.6546 62.1729 54.1649 62.1729 53.5637V50.0763C62.2251 50.0831 62.2774 50.1024 62.3297 50.1024C62.8415 50.1024 63.3202 49.7777 63.4908 49.2673C63.7027 48.6249 63.3574 47.9329 62.7163 47.7197L62.1715 47.5381V40.471C62.1715 39.8685 62.6599 39.3801 63.2638 39.3801H81.8112C82.4137 39.3801 82.9035 39.8685 82.9035 40.471V53.5637C82.9035 54.1649 82.4165 54.6546 81.8112 54.6546H63.2652Z" fill="#7C6ECD"/>
</g>
<path d="M8.02416 30.3966C11.8959 13.4556 26.9811 1.37647 44.3547 1.37647H82.1364C98.9438 1.37647 113.591 12.9402 117.562 29.276C122.458 49.4127 122.463 70.5035 117.541 90.6329C113.572 106.869 99.0221 118.29 82.308 118.29H44.1776C26.9003 118.29 11.9132 106.357 8.04374 89.5182C3.57888 70.089 3.58228 49.8322 8.02416 30.3966Z" stroke="#DEDEDE" stroke-width="1.93165"/>
<defs>
<clipPath id="clip0">
<rect width="48" height="48" fill="white" transform="translate(39.1475 35.8335)"/>
</clipPath>
</defs>
</svg>
